<svg xmlns:xlink="http://www.w3.org/1999/xlink" xmlns="http://www.w3.org/2000/svg" class="css-ze2te4 css-qd6ojx" viewBox="0 0 140 139.99998860677178" width="140"  height="139.99998860677178" ><g transform="translate(-25.57333125217031, -25.57333125217031) scale(0.3733333029513914)" class="css-1sfsc7a" fill="#FFD460"><g xmlns="http://www.w3.org/2000/svg" fill="#FFD460"><path d="M136.3,349.2L287,198.4c-7.1-2.6-12.3-9.4-12.3-17.4c0-10.4,8.4-18.8,18.8-18.8c8.1,0,14.8,5.1,17.4,12.3l20.4-20.4   c-3.3-2.8-6.5-5.6-10-8.1l26.1-63.2l-34.7-14.3l-25.2,61.1c-10.1-3-20.7-4.8-31.6-4.8c-10.9,0-21.5,1.8-31.6,4.8l-25.2-61.1   l-34.7,14.3l26.1,63.2c-18.7,13.1-34.3,31.6-45.7,53.7H87.3v37.5h43.5c-3,12-4.8,24.5-5.5,37.5H68.5v37.5h58.4   C128.8,325.2,132,337.5,136.3,349.2z M218.5,162.2c10.4,0,18.8,8.4,18.8,18.8c0,10.4-8.4,18.8-18.8,18.8s-18.8-8.4-18.8-18.8   C199.8,170.6,208.1,162.2,218.5,162.2z" fill="#FFD460"></path><path d="M443.5,95.1L95.1,443.5h53l30.7-30.7c21.7,19.2,48.3,30.7,77.1,30.7c40.1,0,75.9-21.9,100-56.3h68.8v-37.5h-49.2   c4.4-11.8,7.6-24.4,9.6-37.5h58.4v-37.5h-56.8c-0.6-13-2.4-25.5-5.5-37.5h43.5v-37.5h-32.8l51.6-51.6V95.1z" fill="#FFD460"></path></g></g></svg>